<?xml version="1.0" encoding="UTF-8" standalone="no"?><!DOCTYPE svg PUBLIC "-//W3C//DTD SVG 1.1//EN" "http://www.w3.org/Graphics/SVG/1.1/DTD/svg11.dtd"><svg width="100%" height="100%" viewBox="0 0 512 512" version="1.1" xmlns="http://www.w3.org/2000/svg" xmlns:xlink="http://www.w3.org/1999/xlink" xml:space="preserve" xmlns:serif="http://www.serif.com/" style="fill-rule:evenodd;clip-rule:evenodd;stroke-linejoin:round;stroke-miterlimit:2;"><rect id="safari-pinned-tab" x="0" y="0" width="512" height="512" style="fill:none;"/><g id="SMC-logo-B-W" serif:id="SMC logo B/W"><path d="M410.212,237.387c-13.998,12.441 -18.763,12.097 -20.315,8.985c10.105,-6.611 1.552,-17.5 18.269,-19.831c-0,-2.721 -2.214,-10.368 -4.544,-16.972c-3.497,6.221 -21.113,9.978 -39.389,15.42c-18.276,5.443 -12.052,-0.388 -10.886,-10.497c1.165,-10.109 22.562,-40.435 29.95,-46.266c-0.777,-1.167 -4.057,-5.389 -6.06,-7.253c-15.939,25.662 -23.502,20.859 -29.722,36.023c-6.218,15.163 -5.83,-2.336 -12.053,-12.057c-6.222,-9.721 -14.386,-3.884 -3.886,-21.77c10.501,-17.885 20.138,-22.962 24.028,-24.128c-2.722,-2.814 -4.455,-4.327 -7.566,-6.659c-9.721,6.61 -18.798,22.619 -27.739,28.455c-3.889,14.384 -13.607,14.775 -10.498,9.72c3.111,-5.054 -2.073,-25.323 2.593,-31.932c-0.391,-4.669 -6.043,-7.451 -9.2,-5.872c-1.184,9.861 -6.3,4.252 -5.523,-1.579c-0.388,-1.169 -3.978,-3.503 -6.312,-0.394c-2.721,19.829 7.558,40.555 3.667,47.942c0.777,6.605 -6.607,10.887 -3.886,29.161c2.722,18.275 -3.39,6.48 -7.276,3.373c-5.055,-4.277 -7.113,-10.765 -3.224,-20.869c9.33,-22.94 6.774,-38.699 1.252,-50.534c-1.945,2.328 -4.663,5.059 -7.77,6.619c2.722,-0.39 5.696,11.371 1.465,15.532c-3.952,3.885 -6.32,-12.289 -6.32,-12.289l-5.731,4.474c-0,-0 5.831,12.866 2.33,29.195c-3.503,16.33 3.886,27.6 -10.886,33.048c-7.384,-4.666 -10.944,-38.432 -9.776,-46.203c2.136,-14.211 1.014,-10.938 -7.1,-8.679c0.775,17.881 -3.73,31.165 1.324,43.995c7,13.609 6.062,11.556 -1.324,6.894c-16.72,-8.554 -8.005,-38.383 -13.448,-40.326c-8.556,3.884 -17.632,5.184 -18.901,9.951c-1.205,4.527 8.401,3.268 12.29,19.598c3.891,16.33 12.44,14.77 21.772,34.993c5.442,13.992 20.998,31.879 25.272,36.546c4.275,4.666 12.83,20.606 3.89,34.992c-8.941,14.387 -4.663,40.809 -20.606,53.257c-15.393,12.015 -42.769,24.425 -49.768,40.369c-0,-0 1.287,3.807 9.328,-6.153c10.228,-12.667 40.051,-10.109 53.269,-22.549c7.388,-6.219 9.721,-9.332 7.388,5.443c-3.501,19.827 -6.266,21.769 -10.109,26.823c-3.843,5.055 -8.136,10.311 -0.392,7.387c18.183,-6.863 33.051,-43.154 40.048,-34.987c10.589,12.363 24.586,4.636 26.527,19.019c3.501,-0.776 6.611,-3.497 8.555,-3.497c-0.388,-6.611 -12.531,-15.137 -15.252,-25.633c-2.722,-10.497 -13.611,-11.274 -7.001,-47.431c11.278,-25.272 4.279,-39.659 10.502,-41.209c15.385,-8.997 27.96,-2.731 42.734,-5.842c17.297,-3.641 35.374,-20.595 47.077,-24.1c0.388,-2.721 -0.68,-7.814 -1.067,-11.703Zm-148.233,-14.734c5.055,-8.942 22.054,14.35 14.772,17.496c-17.105,7.388 -16.577,-14.303 -14.772,-17.496Zm18.274,34.605c-3.111,3.112 -10.092,-2.992 -6.611,-6.223c5.442,-5.054 9.72,3.109 6.611,6.223Zm31.879,-1.557c-4.278,-2.721 1.146,-9.686 5.446,-6.999c3.113,1.945 -1.168,9.72 -5.446,6.999Zm17.496,-18.272c-6.998,8.555 -12.829,5.831 -17.104,-3.114c-4.275,-8.943 -1.305,-37.837 6.22,-41.6c6.218,-3.111 9.332,3.888 11.664,10.497c2.693,7.628 6.22,25.66 -0.78,34.217Zm22.163,15.551c-2.334,-4.278 3.498,-8.944 6.61,-4.278c3.113,4.665 -5.008,7.215 -6.61,4.278Zm21.774,-13.219c0,-5.437 10.497,-10.112 10.497,-3.889c0,6.223 -10.497,9.326 -10.497,3.889Z" style="fill:#036db7;fill-rule:nonzero;"/><path d="M256,480c-59.832,0 -116.083,-23.3 -158.392,-65.608c-42.308,-42.308 -65.608,-98.56 -65.608,-158.392c-0,-59.833 23.3,-116.084 65.608,-158.392c42.309,-42.308 98.559,-65.608 158.392,-65.608c59.832,0 116.084,23.3 158.392,65.608c42.308,42.308 65.608,98.559 65.608,158.392c-0,59.832 -23.3,116.084 -65.608,158.392c-42.308,42.308 -98.56,65.608 -158.392,65.608Zm126.519,-130.071c-28.76,38.637 -74.767,63.705 -126.519,63.705c-46.815,-0 -88.929,-20.514 -117.833,-53.032l-46.906,40.894c40.318,45.598 99.229,74.394 164.739,74.394c72.567,-0 137.036,-35.334 177.097,-89.687l-50.578,-36.274Zm-101.192,83.285c1.365,1.046 2.487,2.357 3.37,3.931c0.881,1.573 1.412,3.407 1.593,5.502c0.161,1.869 0,3.672 -0.481,5.41c-0.481,1.74 -1.259,3.27 -2.335,4.587c-1.13,1.372 -2.503,2.482 -4.116,3.329c-1.614,0.849 -3.576,1.373 -5.888,1.573c-1.866,0.161 -3.657,0.005 -5.372,-0.466c-1.715,-0.472 -3.254,-1.236 -4.62,-2.295c-1.35,-1.036 -2.464,-2.341 -3.339,-3.916c-0.876,-1.574 -1.4,-3.366 -1.573,-5.378c-0.181,-2.095 0.014,-4.025 0.583,-5.791c0.571,-1.766 1.429,-3.31 2.576,-4.635c1.139,-1.298 2.531,-2.344 4.18,-3.135c1.648,-0.791 3.435,-1.27 5.362,-1.435c1.915,-0.165 3.739,-0.007 5.474,0.475c1.733,0.482 3.262,1.229 4.586,2.244Zm-24.671,5.894l-1.412,-0.087c-0.29,-1.018 -0.843,-2.115 -1.66,-3.294c-0.817,-1.177 -1.62,-1.844 -2.408,-2c-0.359,-0.071 -0.838,-0.142 -1.438,-0.214c-0.601,-0.073 -1.154,-0.125 -1.659,-0.155l-3.993,-0.242l-0.608,10.062l2.551,0.154c0.723,0.043 1.356,-0 1.897,-0.13c0.54,-0.13 1.028,-0.394 1.464,-0.793c0.32,-0.282 0.643,-0.768 0.969,-1.458c0.327,-0.688 0.535,-1.284 0.627,-1.787l1.375,0.083l-0.654,10.804l-1.376,-0.083c-0.015,-0.546 -0.162,-1.218 -0.441,-2.015c-0.278,-0.799 -0.525,-1.331 -0.738,-1.598c-0.327,-0.408 -0.756,-0.721 -1.287,-0.941c-0.532,-0.22 -1.177,-0.353 -1.938,-0.399l-2.552,-0.154l-0.514,8.505c-0.027,0.434 0.033,0.81 0.177,1.128c0.144,0.317 0.44,0.587 0.887,0.807c0.258,0.125 0.617,0.246 1.076,0.364c0.459,0.12 0.916,0.217 1.372,0.293l-0.086,1.412l-13.843,-0.839l0.085,-1.41c0.352,-0.016 0.82,-0.038 1.403,-0.07c0.582,-0.032 0.991,-0.088 1.227,-0.171c0.445,-0.143 0.76,-0.359 0.947,-0.651c0.187,-0.291 0.295,-0.672 0.324,-1.143l1.096,-18.114c0.025,-0.411 -0.029,-0.774 -0.161,-1.091c-0.133,-0.317 -0.428,-0.592 -0.886,-0.825c-0.329,-0.166 -0.767,-0.325 -1.314,-0.479c-0.549,-0.155 -0.966,-0.258 -1.254,-0.313l0.086,-1.411l23.074,1.396l-0.415,6.859Zm21.61,12.852c0.446,-1.144 0.732,-2.421 0.853,-3.829c0.122,-1.407 0.107,-2.986 -0.044,-4.733c-0.127,-1.484 -0.358,-2.92 -0.689,-4.306c-0.331,-1.387 -0.798,-2.608 -1.398,-3.662c-0.612,-1.052 -1.375,-1.873 -2.287,-2.463c-0.911,-0.591 -2.006,-0.83 -3.282,-0.72c-2.18,0.188 -3.747,1.364 -4.7,3.53c-0.954,2.165 -1.269,5.137 -0.943,8.912c0.138,1.603 0.391,3.106 0.761,4.508c0.369,1.402 0.864,2.611 1.486,3.627c0.634,1.027 1.392,1.802 2.275,2.327c0.882,0.527 1.932,0.736 3.148,0.632c1.192,-0.103 2.189,-0.493 2.992,-1.169c0.803,-0.676 1.413,-1.562 1.828,-2.654Zm-50.204,3.83l-14.056,-2.458l0.245,-1.394c0.325,0.033 0.804,0.08 1.438,0.142c0.633,0.062 1.077,0.066 1.332,0.012c0.472,-0.102 0.814,-0.284 1.025,-0.547c0.212,-0.264 0.358,-0.622 0.436,-1.075l3.142,-17.966c0.071,-0.404 0.056,-0.775 -0.045,-1.112c-0.101,-0.336 -0.361,-0.639 -0.779,-0.908c-0.265,-0.169 -0.667,-0.366 -1.204,-0.589c-0.539,-0.222 -1.005,-0.394 -1.401,-0.512l0.243,-1.392l14.055,2.457l-0.243,1.393c-0.364,-0.027 -0.819,-0.054 -1.367,-0.082c-0.546,-0.029 -1.016,-0.016 -1.405,0.039c-0.492,0.074 -0.843,0.261 -1.055,0.561c-0.212,0.301 -0.355,0.659 -0.427,1.076l-3.139,17.947c-0.075,0.429 -0.059,0.81 0.049,1.141c0.107,0.332 0.371,0.632 0.79,0.902c0.23,0.15 0.626,0.327 1.186,0.529c0.56,0.203 1.034,0.35 1.423,0.442l-0.243,1.394Zm92.183,-7.989l-9.582,2.378c-2.281,-2.124 -4.157,-3.8 -5.624,-5.028c-1.47,-1.23 -3.263,-2.629 -5.383,-4.195l-0.963,0.24l1.882,7.584c0.105,0.422 0.272,0.76 0.504,1.015c0.231,0.254 0.594,0.425 1.091,0.514c0.245,0.039 0.618,0.048 1.118,0.029c0.5,-0.018 0.924,-0.052 1.273,-0.101l0.341,1.373l-13.32,3.307l-0.341,-1.373c0.332,-0.119 0.768,-0.281 1.309,-0.484c0.542,-0.202 0.918,-0.38 1.129,-0.532c0.399,-0.298 0.639,-0.61 0.721,-0.935c0.08,-0.326 0.066,-0.711 -0.046,-1.157l-4.372,-17.613c-0.105,-0.422 -0.257,-0.758 -0.455,-1.008c-0.199,-0.249 -0.571,-0.419 -1.117,-0.507c-0.413,-0.059 -0.888,-0.078 -1.424,-0.057c-0.536,0.021 -0.957,0.044 -1.262,0.07l-0.341,-1.373l14.005,-3.477c3.133,-0.778 5.633,-0.877 7.5,-0.302c1.869,0.577 3.049,1.856 3.541,3.839c0.435,1.748 0.281,3.276 -0.458,4.587c-0.739,1.311 -2.062,2.52 -3.966,3.628c1.054,0.833 2.281,1.8 3.68,2.897c1.399,1.097 2.85,2.212 4.352,3.346c0.477,0.367 1.111,0.805 1.905,1.311c0.791,0.508 1.446,0.777 1.965,0.81c0.29,0.015 0.652,0.001 1.082,-0.044c0.432,-0.044 0.737,-0.083 0.915,-0.115l0.341,1.373Zm-107.557,-2.903l-2.85,7.757l-22.703,-6.792l0.406,-1.355c0.415,0.087 0.907,0.174 1.474,0.261c0.566,0.089 0.947,0.123 1.141,0.105c0.466,-0.037 0.822,-0.176 1.071,-0.417c0.25,-0.24 0.442,-0.587 0.576,-1.039l5.202,-17.386c0.124,-0.418 0.164,-0.78 0.118,-1.091c-0.046,-0.31 -0.28,-0.648 -0.7,-1.013c-0.31,-0.27 -0.703,-0.529 -1.176,-0.778c-0.475,-0.248 -0.856,-0.443 -1.143,-0.579l0.405,-1.355l13.53,4.048l-0.405,1.355c-0.381,-0.076 -0.833,-0.157 -1.356,-0.244c-0.522,-0.087 -0.986,-0.128 -1.391,-0.124c-0.497,0.016 -0.868,0.161 -1.114,0.434c-0.246,0.273 -0.429,0.612 -0.551,1.018l-4.848,16.205c-0.228,0.764 -0.356,1.382 -0.384,1.854c-0.027,0.471 0.078,0.856 0.318,1.154c0.235,0.31 0.612,0.577 1.132,0.802c0.519,0.225 1.254,0.479 2.203,0.763c0.926,0.277 1.842,0.492 2.75,0.643c0.907,0.152 1.607,0.1 2.1,-0.156c0.767,-0.414 1.62,-1.064 2.562,-1.95c0.939,-0.886 1.727,-1.718 2.365,-2.499l1.268,0.379Zm129.091,-32.97c-0.294,0.17 -0.709,0.427 -1.244,0.77c-0.535,0.344 -0.958,0.79 -1.271,1.339c-0.276,0.48 -0.34,1.12 -0.189,1.919c0.149,0.799 0.537,1.9 1.16,3.303l7.46,16.801l-2.949,1.31l-22.718,-11.673l4.9,11.037c0.608,1.37 1.161,2.37 1.66,3c0.499,0.633 1.027,1.024 1.583,1.173c0.405,0.112 0.976,0.115 1.712,0.014c0.733,-0.101 1.31,-0.205 1.726,-0.311l0.574,1.293l-10.108,4.488l-0.574,-1.293c0.417,-0.224 0.876,-0.524 1.377,-0.898c0.501,-0.375 0.881,-0.779 1.138,-1.21c0.289,-0.512 0.37,-1.125 0.243,-1.843c-0.126,-0.718 -0.529,-1.839 -1.205,-3.363l-4.945,-11.135c-0.245,-0.552 -0.563,-1.036 -0.952,-1.451c-0.39,-0.415 -0.845,-0.719 -1.367,-0.911c-0.553,-0.204 -1.129,-0.302 -1.727,-0.294c-0.599,0.008 -1.246,0.093 -1.94,0.256l-0.589,-1.326l8.851,-3.93l19.916,10.191l-3.949,-8.893c-0.628,-1.413 -1.189,-2.423 -1.683,-3.031c-0.494,-0.606 -1.019,-0.985 -1.574,-1.134c-0.434,-0.111 -1.006,-0.118 -1.716,-0.021c-0.711,0.097 -1.274,0.199 -1.691,0.304l-0.573,-1.293l10.09,-4.481l0.574,1.293Zm-158.541,32.73l-12.659,-6.013l0.607,-1.277c0.608,0.236 1.351,0.458 2.227,0.667c0.876,0.209 1.374,0.188 1.493,-0.064c0.042,-0.087 0.08,-0.189 0.115,-0.306c0.036,-0.116 0.06,-0.286 0.071,-0.509l0.305,-5.756l-8.022,-3.811c-0.398,0.361 -0.851,0.788 -1.358,1.281c-0.508,0.497 -0.955,0.94 -1.34,1.331c-0.496,0.514 -0.83,0.898 -0.997,1.153c-0.168,0.254 -0.277,0.437 -0.33,0.546c-0.165,0.349 -0.042,0.771 0.37,1.27c0.412,0.496 1.209,1.092 2.39,1.786l-0.607,1.278l-9.531,-4.528l0.607,-1.277c0.371,0.149 0.804,0.285 1.302,0.407c0.496,0.122 0.915,0.165 1.254,0.124c0.573,-0.048 1.105,-0.19 1.598,-0.425c0.492,-0.233 0.967,-0.563 1.423,-0.989c2.724,-2.465 5.453,-4.936 8.188,-7.41c2.734,-2.475 5.753,-5.202 9.055,-8.183l3.276,1.556c-0.361,6.279 -0.661,11.234 -0.901,14.866c-0.241,3.633 -0.412,6.656 -0.515,9.069c-0.013,0.395 0.026,0.778 0.117,1.148c0.091,0.372 0.282,0.774 0.571,1.206c0.222,0.32 0.515,0.619 0.878,0.899c0.363,0.279 0.702,0.507 1.019,0.684l-0.606,1.277Zm120.415,-12.446c-0.413,-1.666 -1.181,-2.766 -2.304,-3.304c-1.124,-0.536 -2.548,-0.591 -4.273,-0.163l-1.389,0.345l2.594,10.452l1.337,-0.332c1.726,-0.428 2.95,-1.211 3.676,-2.351c0.726,-1.139 0.846,-2.689 0.359,-4.647Zm63.733,-8.02l-12.16,7.464l-0.739,-1.205c0.264,-0.191 0.656,-0.474 1.17,-0.847c0.516,-0.373 0.851,-0.664 1.007,-0.873c0.286,-0.388 0.422,-0.751 0.405,-1.089c-0.014,-0.337 -0.143,-0.703 -0.383,-1.095l-9.542,-15.542c-0.214,-0.35 -0.471,-0.619 -0.769,-0.805c-0.298,-0.185 -0.694,-0.24 -1.186,-0.165c-0.311,0.049 -0.742,0.167 -1.292,0.356c-0.55,0.19 -1.013,0.371 -1.39,0.545l-0.739,-1.205l12.16,-7.464l0.74,1.204c-0.29,0.221 -0.648,0.503 -1.078,0.844c-0.428,0.341 -0.771,0.66 -1.027,0.959c-0.32,0.381 -0.46,0.755 -0.42,1.119c0.039,0.367 0.171,0.729 0.392,1.09l9.532,15.527c0.227,0.371 0.491,0.646 0.791,0.824c0.3,0.177 0.697,0.229 1.189,0.152c0.274,-0.04 0.687,-0.17 1.24,-0.389c0.553,-0.219 1.007,-0.422 1.36,-0.61l0.739,1.205Zm-191.893,5.267l0.626,-9.998l-7.303,6.826l6.677,3.172Zm-30.879,-4.565c-1.565,-1.05 -2.86,-2.287 -3.885,-3.71c-1.024,-1.425 -1.719,-2.959 -2.084,-4.605c-0.36,-1.61 -0.359,-3.303 0.004,-5.08c0.361,-1.775 1.102,-3.497 2.222,-5.165c1.113,-1.659 2.431,-3 3.956,-4.024c1.525,-1.024 3.156,-1.705 4.895,-2.039c1.705,-0.327 3.462,-0.288 5.271,0.118c1.809,0.404 3.532,1.156 5.168,2.254c1.184,0.794 2.165,1.665 2.944,2.609c0.778,0.944 1.382,1.823 1.811,2.635l1.488,-0.201l1.311,0.88l-5.098,7.887l-1.325,-0.889c0.848,-2.888 1.12,-5.243 0.818,-7.066c-0.304,-1.822 -1.212,-3.242 -2.725,-4.257c-1.884,-1.266 -3.877,-1.397 -5.975,-0.392c-2.099,1.004 -4.157,3.009 -6.174,6.014c-1.14,1.699 -1.946,3.262 -2.416,4.688c-0.471,1.426 -0.681,2.688 -0.632,3.785c0.068,1.154 0.378,2.176 0.931,3.064c0.552,0.888 1.31,1.656 2.272,2.302c1.403,0.941 2.91,1.4 4.519,1.374c1.61,-0.027 3.385,-0.509 5.323,-1.449l0.77,1.651c-1.024,0.594 -2.047,1.054 -3.066,1.381c-1.02,0.327 -2.06,0.499 -3.12,0.516c-1.163,0.02 -2.328,-0.137 -3.495,-0.469c-1.168,-0.331 -2.404,-0.936 -3.708,-1.812Zm249.518,-21.307l-10.912,8.793l-0.888,-1.102c0.477,-0.445 1,-1.018 1.568,-1.717c0.567,-0.697 0.764,-1.156 0.591,-1.371c-0.062,-0.076 -0.137,-0.155 -0.227,-0.238c-0.09,-0.082 -0.232,-0.177 -0.427,-0.284l-5.054,-2.774l-6.914,5.572c0.151,0.514 0.34,1.107 0.564,1.78c0.225,0.672 0.43,1.267 0.617,1.785c0.247,0.67 0.449,1.136 0.605,1.397c0.157,0.263 0.274,0.441 0.349,0.535c0.242,0.302 0.677,0.374 1.304,0.219c0.627,-0.157 1.509,-0.615 2.647,-1.377l0.887,1.101l-8.216,6.62l-0.887,-1.102c0.294,-0.269 0.606,-0.601 0.933,-0.996c0.325,-0.393 0.544,-0.753 0.656,-1.075c0.205,-0.538 0.308,-1.078 0.31,-1.625c0.004,-0.545 -0.088,-1.115 -0.273,-1.712c-1.039,-3.523 -2.08,-7.055 -3.121,-10.592c-1.042,-3.537 -2.189,-7.441 -3.44,-11.71l2.824,-2.274c5.499,3.05 9.833,5.471 13.001,7.264c3.168,1.794 5.817,3.262 7.945,4.401c0.35,0.184 0.713,0.316 1.087,0.395c0.373,0.079 0.818,0.081 1.334,0.008c0.384,-0.062 0.782,-0.196 1.19,-0.401c0.41,-0.205 0.762,-0.412 1.059,-0.62l0.888,1.1Zm-284.552,-102.044c19.443,62.375 77.729,107.781 146.42,107.781c38.264,-0 73.299,-14.09 100.196,-37.359c-30.331,-24.829 -73.303,-40.861 -115.052,-51.264c-25.824,-6.434 -51.186,-10.711 -72.815,-13.567c-0.015,-0.002 -0.03,-0.004 -0.045,-0.006c-24.066,-3.177 -43.522,-4.597 -53.873,-5.275l-0.023,-0.001c-1.93,-0.127 -3.542,-0.227 -4.808,-0.309Zm267.496,102.422l-8.733,-4.905l2.977,9.544l5.756,-4.639Zm-209.811,-278.192l-34.291,-52.104c-11.53,7.815 -22.396,16.782 -32.46,26.845c-41.532,41.532 -64.404,96.751 -64.404,155.486c0,54.258 19.754,103.99 52.457,142.391l46.91,-40.898c-23.146,-27.439 -37.112,-62.866 -37.112,-101.493c0,-54.039 27.332,-101.813 68.9,-130.227Zm163.857,-8.329c49.108,26.73 82.512,78.815 82.512,138.556c-0,33.69 -10.624,64.946 -28.703,90.6l50.574,36.272c25.428,-35.872 40.385,-79.658 40.385,-126.872c-0,-58.735 -22.873,-113.954 -64.405,-155.486c-15.354,-15.354 -32.579,-28.158 -51.165,-38.201l-29.198,55.131Zm74.335,172.847c-93.226,-2.257 -148.389,23.558 -159.788,29.494c40.874,10.527 82.466,26.525 112.052,50.844c23.451,-20.832 40.491,-48.738 47.736,-80.338Zm-322.128,51.742l8.52,3.628l7.821,-4.967l-0.816,9.229l7.143,5.903l-9.029,2.074l-3.408,8.615l-4.765,-7.946l-9.243,-0.576l6.084,-6.986l-2.307,-8.974Zm348.771,-14.332l-7.676,5.186l-8.621,-3.384l2.56,8.904l-5.885,7.158l9.257,0.314l4.989,7.806l3.162,-8.709l8.966,-2.33l-7.304,-5.697l0.552,-9.248Zm-200.757,-34.523c-5.003,-0.487 -10.039,-0.621 -14.985,-0.446c-8.462,0.298 -16.665,1.498 -24,3.392c-0.077,0.031 -0.158,0.052 -0.24,0.063c-8.608,2.246 -16.008,5.45 -21.211,9.274c21.183,2.863 45.735,7.074 70.721,13.3c0.391,0.097 0.783,0.195 1.176,0.294c1.908,-1.071 11.377,-6.185 28.008,-11.956c-10.972,-8.206 -25.029,-12.501 -39.347,-13.909c-0.041,-0.002 -0.082,-0.006 -0.122,-0.012Zm-140.462,2.953c0.618,2.427 0.803,4.8 0.554,7.115c-0.249,2.317 -0.921,4.452 -2.017,6.403c-1.073,1.912 -2.575,3.587 -4.508,5.024c-1.932,1.435 -4.191,2.482 -6.777,3.14c-2.571,0.653 -5.065,0.811 -7.482,0.473c-2.415,-0.338 -4.633,-1.111 -6.649,-2.322c-1.977,-1.186 -3.68,-2.782 -5.112,-4.787c-1.431,-2.005 -2.469,-4.276 -3.114,-6.813c-0.467,-1.835 -0.667,-3.564 -0.599,-5.187c0.068,-1.626 0.247,-3.03 0.543,-4.215l-1.652,-1.121l-0.517,-2.03l12.037,-3.286l0.523,2.053c-3.399,2.107 -5.758,4.196 -7.073,6.267c-1.315,2.075 -1.675,4.283 -1.079,6.629c0.744,2.922 2.599,4.816 5.565,5.682c2.967,0.867 6.78,0.708 11.44,-0.477c2.633,-0.671 4.816,-1.502 6.546,-2.497c1.729,-0.994 3.056,-2.056 3.981,-3.184c0.954,-1.203 1.552,-2.489 1.794,-3.857c0.24,-1.368 0.171,-2.798 -0.209,-4.291c-0.553,-2.177 -1.638,-3.965 -3.253,-5.365c-1.615,-1.402 -3.799,-2.497 -6.551,-3.285l0.703,-2.316c1.54,0.319 2.959,0.772 4.258,1.351c1.299,0.582 2.48,1.333 3.542,2.254c1.17,1.013 2.184,2.2 3.044,3.563c0.86,1.363 1.547,3.057 2.062,5.079Zm210.715,2.124c-14.627,-11.855 -36.15,-13.59 -52.873,-10.584c-0.11,0.041 -0.226,0.062 -0.342,0.063c-4.97,0.916 -9.505,2.251 -13.295,3.863c13.95,1.832 27.453,6.449 37.999,14.725c7.989,-2.693 17.505,-5.494 28.511,-8.067Zm-113.68,-2.94c-3.324,-1.927 -18.274,-9.366 -45.78,-5.9c-1.676,0.1 -2.919,0.115 -3.846,0.056c-0.326,0.081 -0.648,0.164 -0.969,0.249c-9.016,2.394 -16.35,6.219 -20.65,10.28c10.712,0.724 29.072,2.148 51.46,5.091c4.71,-3.907 11.605,-7.277 19.785,-9.776Zm-78.957,4.184c1.258,0.083 2.966,0.189 5.083,0.326c4.075,-4.492 11.749,-8.903 21.454,-11.676c-0.117,-0.425 -0.01,-0.889 0.307,-1.286c0.398,-0.499 1.531,-1.116 3.225,-1.793c-16.179,-1.631 -28.519,2.898 -32.612,4.672c0.743,3.295 1.593,6.55 2.543,9.757Zm120.808,-22.688c-0.767,0.182 -1.527,0.375 -2.278,0.578c7.29,1.262 14.546,3.868 21.13,8.302c17.659,-3.089 40.405,-1.037 55.419,12.003c0.587,-0.133 1.178,-0.265 1.773,-0.396c-2.208,-8.363 -10.907,-14.431 -22.263,-18.252c-15.862,-5.338 -36.952,-6.211 -53.699,-2.255c-0.027,0.008 -0.054,0.014 -0.082,0.02Zm113.02,8.626c-5.527,-2.02 -12.594,-2.118 -18.91,-0.258c-6.202,1.827 -11.701,5.55 -14.218,11.292c8.649,-1.807 18.104,-3.446 28.352,-4.783c1.124,-2.165 2.744,-4.273 4.776,-6.251Zm50.921,-30.659l-216.986,0l4.868,9.862c15.199,-0.942 32.501,1.385 48.141,10.128c17.043,-3.938 38.378,-3.027 54.455,2.382c11.845,3.986 20.816,10.452 23.403,19.088c2.637,-6.599 8.741,-10.921 15.723,-12.977c7.106,-2.093 15.1,-1.83 21.126,0.674c3.768,-3.207 8.639,-5.988 14.207,-7.983c14.059,-5.037 32.538,-5.096 48.572,5.462c0.85,-5.07 1.45,-10.225 1.786,-15.452c-0.878,0.073 -1.688,0.108 -2.438,0.108c-7.326,-0 -8.836,-3.318 -10.543,-7.066c-0.628,-1.377 -1.287,-2.823 -2.314,-4.226Zm-202.58,28.351l-0.75,10.077c0.586,0.3 1.171,0.609 1.755,0.928c7.404,-1.896 15.649,-3.101 24.154,-3.401c4.954,-0.175 9.996,-0.043 15.009,0.435c3.903,-2.024 8.881,-3.736 14.482,-4.927c-7.163,-4.393 -15.053,-6.668 -22.834,-7.466c-0.174,0.028 -0.349,0.009 -0.508,-0.05c-8.055,-0.761 -15.973,0.048 -22.824,1.716c-3.071,0.747 -5.928,1.664 -8.484,2.688Zm263.645,6.688c-1.706,1.518 -3.696,2.656 -5.969,3.414c-2.274,0.759 -4.799,0.994 -7.578,0.707c-2.476,-0.256 -4.789,-0.914 -6.938,-1.975c-2.151,-1.061 -3.951,-2.459 -5.402,-4.189c-1.508,-1.819 -2.614,-3.886 -3.319,-6.202c-0.705,-2.316 -0.9,-5.007 -0.583,-8.074c0.256,-2.476 0.905,-4.772 1.948,-6.893c1.04,-2.119 2.422,-3.938 4.146,-5.454c1.687,-1.505 3.668,-2.633 5.941,-3.382c2.273,-0.751 4.742,-0.987 7.409,-0.713c2.779,0.288 5.249,1.023 7.411,2.206c2.161,1.184 3.963,2.689 5.405,4.516c1.411,1.809 2.427,3.887 3.048,6.235c0.621,2.348 0.801,4.8 0.536,7.355c-0.263,2.539 -0.924,4.88 -1.984,7.022c-1.06,2.143 -2.416,3.951 -4.071,5.427Zm-47.932,-6.248c-15.612,-10.656 -33.765,-10.663 -47.521,-5.734c-5.512,1.975 -10.321,4.736 -13.96,7.928c-0.054,0.061 -0.115,0.114 -0.181,0.159c-1.924,1.714 -3.512,3.549 -4.69,5.451c19.147,-2.377 40.982,-3.684 65.411,-3.072c0.337,-1.568 0.651,-3.145 0.941,-4.732Zm-300.859,4.184c5.002,-2.113 19.171,-7.029 37.289,-4.148c3.675,-1.126 8.395,-2.296 13.522,-3.291l0.478,-0.092c-1.512,-0.67 -3.052,-1.277 -4.611,-1.825l-13.816,2.907c-0.07,0.015 -0.141,0.021 -0.212,0.021c-0.315,0 -0.618,-0.146 -0.816,-0.402c-0.24,-0.315 -0.279,-0.739 -0.098,-1.093l2.372,-4.645c-3.924,-0.679 -7.808,-1.087 -11.508,-1.304c-11.432,-0.671 -21.104,0.48 -24.727,1.187c0.534,4.286 1.246,8.517 2.127,12.685Zm325.096,-6.604c1.38,0.868 2.974,1.556 4.781,2.066c1.806,0.51 3.869,0.885 6.187,1.124c1.969,0.202 3.898,0.26 5.79,0.174c1.892,-0.088 3.601,-0.392 5.127,-0.912c1.526,-0.536 2.786,-1.326 3.784,-2.368c0.997,-1.044 1.583,-2.412 1.757,-4.104c0.298,-2.892 -0.846,-5.229 -3.435,-7.014c-2.587,-1.784 -6.385,-2.935 -11.392,-3.451c-2.127,-0.22 -4.151,-0.263 -6.073,-0.131c-1.92,0.133 -3.621,0.478 -5.101,1.035c-1.497,0.571 -2.7,1.367 -3.604,2.388c-0.906,1.02 -1.442,2.336 -1.609,3.95c-0.162,1.581 0.097,2.979 0.78,4.196c0.682,1.216 1.685,2.232 3.008,3.047Zm-346.045,-19.01l1.706,18.876l-1.87,0.17c-0.071,-0.43 -0.177,-1.061 -0.316,-1.895c-0.14,-0.833 -0.288,-1.404 -0.445,-1.713c-0.294,-0.569 -0.646,-0.945 -1.058,-1.125c-0.411,-0.18 -0.92,-0.244 -1.528,-0.188l-24.129,2.181c-0.542,0.05 -1.013,0.196 -1.411,0.441c-0.396,0.247 -0.695,0.684 -0.897,1.315c-0.124,0.398 -0.237,0.982 -0.337,1.748c-0.099,0.767 -0.157,1.425 -0.172,1.974l-1.871,0.169l-1.706,-18.876l1.871,-0.169c0.09,0.475 0.214,1.069 0.366,1.78c0.153,0.711 0.332,1.309 0.536,1.789c0.265,0.605 0.626,0.991 1.085,1.16c0.459,0.167 0.967,0.227 1.527,0.176l24.105,-2.18c0.575,-0.051 1.057,-0.203 1.446,-0.456c0.388,-0.253 0.683,-0.694 0.883,-1.325c0.113,-0.349 0.204,-0.918 0.269,-1.706c0.066,-0.787 0.091,-1.447 0.075,-1.977l1.871,-0.169Zm106.334,17.789l-0.075,1.004c2.405,-0.924 5.039,-1.751 7.847,-2.434c7.081,-1.724 15.263,-2.547 23.587,-1.748c1.337,-0.456 2.716,-0.876 4.132,-1.261c-14.491,-7.554 -30.288,-9.68 -44.321,-8.931l3.784,7.667c0.138,0.284 0.14,0.615 0.004,0.899c-0.137,0.286 -0.397,0.491 -0.705,0.559l-9.947,2.2c5.684,-0.296 10.943,-0.067 14.929,0.974c0.479,0.126 0.802,0.577 0.765,1.071Zm-12.065,-15.28l-18.284,6.148l-0,8.223l22.88,-5.059l-4.596,-9.312Zm-20.339,-21.896l-18.437,36.098l18.437,-3.879l-0,-32.219Zm-56.283,12.026c-0.003,0.411 -0.005,0.816 -0.005,1.222c0,5.783 0.322,11.492 0.949,17.109c4.077,-0.759 13.737,-1.89 25.075,-1.225c3.965,0.233 8.134,0.684 12.34,1.444l9.474,-18.55l-47.833,0Zm296.416,-53.854c-5.67,2.265 -10.83,3.243 -15.524,3.243c-1.279,-0 -2.523,-0.073 -3.734,-0.212c-2.076,-0.233 -4.105,-0.665 -6.084,-1.297c-0.46,0.949 -0.938,1.839 -1.436,2.672c-2.584,8.633 -4.122,21.809 0.407,31.199c2.468,5.12 6.471,8.54 11.9,10.169c9.322,2.797 11.51,7.597 13.267,11.455c1.764,3.87 2.973,6.521 11.231,5.74c0.133,-2.615 0.201,-5.246 0.201,-7.893c-0,-19.403 -3.623,-37.975 -10.228,-55.076Zm-238.078,59.28l13.8,-4.64l-13.8,-27.965l-0,32.605Zm-98.652,-34.129l-0.127,1.876c-1.491,0.395 -3.107,1.085 -4.848,2.066c-1.739,0.981 -2.705,1.932 -2.896,2.849c-0.099,0.508 -0.199,1.135 -0.297,1.883c-0.1,0.748 -0.168,1.393 -0.205,1.937l-0.076,1.126l26.742,1.817c0.577,0.04 1.093,-0.029 1.547,-0.208c0.455,-0.179 0.831,-0.563 1.129,-1.155c0.169,-0.358 0.357,-0.921 0.561,-1.687c0.206,-0.767 0.359,-1.42 0.459,-1.961l1.874,0.128l-1.291,19.006l-1.874,-0.128c-0.017,-0.468 -0.04,-1.126 -0.071,-1.972c-0.031,-0.847 -0.101,-1.428 -0.209,-1.74c-0.212,-0.642 -0.529,-1.082 -0.947,-1.319c-0.419,-0.238 -0.924,-0.378 -1.517,-0.418l-26.982,-1.833l-0.078,1.126c-0.037,0.544 -0.056,1.193 -0.059,1.948c-0.003,0.754 0.011,1.389 0.04,1.905c0.065,0.935 0.894,2.006 2.485,3.215c1.591,1.207 3.099,2.109 4.523,2.703l-0.128,1.874l-9.754,-0.662l2.244,-33.038l9.755,0.662Zm40.862,16.847c-0.275,3.239 -0.449,6.508 -0.518,9.801l4.523,0l0,-9.801l-4.005,-0Zm134.056,-0l-0,9.801l23.132,0l0,-9.801l-23.132,-0Zm-66.413,-0l4.837,9.801l8.119,0l-0,-9.801l-12.956,-0Zm-48.475,-0l0,9.801l23.134,0l-0,-9.801l-23.134,-0Zm252.192,-0l-99.008,-0l0,9.801l116.274,0c-1.712,-1.544 -4.144,-2.954 -7.819,-4.056c-3.786,-1.136 -6.945,-3.06 -9.447,-5.745Zm-175.598,-0l-0,9.801l23.129,0l0,-9.801l-23.129,-0Zm253.631,5.119l-0.205,-1.819c1.236,-0.607 2.451,-1.55 3.643,-2.831c1.193,-1.281 1.845,-2.493 1.959,-3.636c0.058,-0.491 0.051,-1.165 -0.02,-2.021c-0.072,-0.856 -0.139,-1.564 -0.202,-2.122l-0.552,-4.93l-13.091,1.465l0.391,3.495c0.098,0.876 0.291,1.663 0.58,2.357c0.287,0.695 0.759,1.305 1.416,1.829c0.407,0.326 1.095,0.625 2.062,0.896c0.968,0.271 1.8,0.424 2.499,0.459l0.203,1.82l-14.168,1.585l-0.203,-1.818c0.66,-0.171 1.474,-0.509 2.443,-1.014c0.969,-0.504 1.626,-0.953 1.97,-1.347c0.515,-0.59 0.84,-1.256 0.976,-1.999c0.134,-0.742 0.15,-1.585 0.044,-2.526l-0.392,-3.493l-9.788,1.095c-1.021,0.114 -1.823,0.28 -2.403,0.499c-0.582,0.219 -1.009,0.553 -1.281,1.004c-0.259,0.433 -0.397,1.001 -0.415,1.706c-0.018,0.705 0.04,1.656 0.173,2.852c0.063,0.559 0.146,1.228 0.25,2.008c0.103,0.78 0.227,1.461 0.374,2.043c0.154,0.66 0.344,1.273 0.569,1.838c0.224,0.564 0.505,0.974 0.84,1.227c0.867,0.678 2.156,1.407 3.867,2.184c1.711,0.777 2.982,1.274 3.814,1.487l0.195,1.748l-10.651,0.537l-3.565,-31.855l1.867,-0.208c0.082,0.442 0.213,1.043 0.394,1.797c0.182,0.755 0.355,1.285 0.518,1.59c0.323,0.578 0.692,0.949 1.106,1.112c0.414,0.163 0.925,0.212 1.531,0.144l23.957,-2.682c0.575,-0.064 1.039,-0.205 1.394,-0.422c0.355,-0.218 0.647,-0.678 0.875,-1.382c0.146,-0.437 0.255,-1.039 0.331,-1.807c0.076,-0.767 0.117,-1.346 0.12,-1.734l1.868,-0.209l3.37,30.109l-8.663,0.969Zm-81.57,-10.257c-0.06,-0.119 -0.119,-0.24 -0.178,-0.362c-4.172,-8.65 -3.524,-19.541 -1.765,-27.793c-2.577,2.698 -5.517,4.188 -8.798,4.45c-0.34,0.028 -0.682,0.04 -1.022,0.04c-9.789,0 -19.695,-10.916 -23.677,-16.889c-2.724,-4.088 -3.584,-9.103 -2.42,-14.121c1.219,-5.269 4.626,-9.979 9.414,-13.062c-1.139,-1.968 -2.08,-3.474 -2.818,-4.212c-0.946,-0.946 -2.173,-2.074 -3.593,-3.378c-2.966,-2.725 -6.446,-5.922 -9.222,-9.16c-4.719,9.468 -14.346,11.04 -24.148,11.253c-0.081,0.001 -0.164,0.003 -0.247,0.003c-2.099,-0 -4.468,-0.572 -6.919,-1.662c2.341,3.891 3.75,8.872 2.858,13.068c-0.144,0.675 -0.237,1.413 -0.333,2.194c-0.554,4.423 -1.315,10.482 -13.359,12.512c-0.935,0.157 -1.789,0.236 -2.565,0.236c-2.069,0 -3.58,-0.562 -4.581,-1.698c-1.048,-1.186 -1.372,-2.806 -1.282,-4.662l-33.081,-0c-0.258,5.653 -0.859,11.422 -2.094,16.215c-1.282,4.982 -4.135,5.819 -5.904,5.819c-0.322,0 -0.607,-0.027 -0.842,-0.063c-2.495,-0.377 -5.384,-2.428 -7.994,-5.757c0.109,0.302 0.208,0.6 0.295,0.892c0.66,2.216 0.601,4.005 -0.174,5.32c-1.946,3.291 -5.769,6.946 -10.667,7.329c-0.253,0.02 -0.518,0.031 -0.793,0.031c-2.589,-0 -6.13,-0.991 -9.57,-5.156l-0.387,-0.47c-4.135,-5.005 -9.211,-11.148 -10.892,-17.093c-0.744,0.201 -1.489,0.313 -2.224,0.313c-1.118,-0 -2.214,-0.257 -3.259,-0.849c-2.199,-1.248 -3.354,-3.789 -3.143,-6.531l-13.847,-0c-0.433,3.432 -2.077,6.491 -4.489,8.737l35.366,44.506l168.354,0Zm-214.505,0l0,-40.669c-1.61,-0.107 -3.149,-0.479 -4.573,-1.073l-23.356,41.742l27.929,0Zm4.366,-15.043l7.424,15.043l31.735,0l-31.908,-40.154l-2.432,-3.061c-2.053,1.429 -4.494,2.338 -7.13,2.537l0,40.678l0.362,0l-0,-14.589c-0,-0.478 0.329,-0.892 0.794,-0.999c0.462,-0.11 0.942,0.116 1.155,0.545Zm-55.319,3.406c-0.759,3.83 -1.375,7.711 -1.842,11.637l22.343,0l24.039,-42.67c-0.991,-0.591 -1.905,-1.299 -2.723,-2.102l-0.16,-0.159l-41.657,33.294Zm14.776,-41.606c-6.25,11.815 -11,24.538 -13.998,37.917l39.537,-31.172c-1.433,-1.936 -2.393,-4.242 -2.709,-6.745l-22.83,-0Zm-54.426,-2.97c-0.096,0.574 -0.14,1.111 -0.132,1.613c0.008,0.502 0.077,0.996 0.205,1.483c0.183,0.768 0.491,1.493 0.923,2.174c0.433,0.681 0.935,1.368 1.505,2.064c1.184,1.419 2.48,2.923 3.889,4.514c1.41,1.591 2.966,3.328 4.668,5.21c1.072,1.221 1.933,2.028 2.581,2.419c0.649,0.392 1.838,0.833 3.567,1.325l4.657,1.32c0.556,0.157 1.073,0.191 1.548,0.101c0.476,-0.091 0.929,-0.392 1.359,-0.905c0.182,-0.232 0.483,-0.747 0.901,-1.546c0.418,-0.799 0.7,-1.394 0.844,-1.788l1.808,0.512l-5.197,18.327l-1.808,-0.512c0.093,-0.441 0.207,-1.081 0.344,-1.918c0.138,-0.837 0.191,-1.436 0.159,-1.794c-0.085,-0.642 -0.302,-1.126 -0.653,-1.45c-0.35,-0.325 -0.819,-0.571 -1.405,-0.737l-5.794,-1.643c-0.509,-0.144 -0.959,-0.263 -1.35,-0.358c-0.389,-0.093 -0.729,-0.131 -1.018,-0.114c-0.325,0.026 -0.752,0.105 -1.281,0.238c-0.531,0.134 -1.218,0.306 -2.063,0.517c-2.423,0.599 -4.725,1.188 -6.91,1.771c-2.184,0.582 -4.237,1.143 -6.159,1.682c-0.998,0.285 -1.832,0.62 -2.501,1.006c-0.668,0.385 -1.243,0.811 -1.726,1.275c-0.349,0.352 -0.67,0.807 -0.963,1.367c-0.292,0.559 -0.521,1.074 -0.688,1.544l-1.808,-0.513l5.343,-18.836l1.807,0.513c-0.443,1.737 -0.654,2.933 -0.631,3.59c0.024,0.655 0.205,1.031 0.545,1.128c0.169,0.048 0.541,0.032 1.113,-0.047c0.574,-0.079 1.474,-0.254 2.701,-0.523c1.152,-0.24 2.75,-0.617 4.796,-1.129c2.046,-0.512 4.451,-1.143 7.216,-1.894c-3.815,-4.248 -6.489,-7.181 -8.023,-8.798c-1.533,-1.618 -2.509,-2.486 -2.926,-2.605c-0.525,-0.149 -1.018,0.06 -1.478,0.625c-0.461,0.565 -0.934,1.559 -1.421,2.98l-1.808,-0.513l3.457,-12.186l1.807,0.511Zm272.61,33.069c-11.248,-1.607 -28.258,-18.121 -28.976,-18.823l1.437,-1.47c0.17,0.167 17.244,16.746 27.83,18.259l-0.291,2.034Zm108.44,-2.452l-0.573,-1.788c1.24,-0.919 2.487,-2.155 3.744,-3.71c1.255,-1.553 1.802,-2.793 1.642,-3.716c-0.096,-0.509 -0.236,-1.129 -0.419,-1.86c-0.183,-0.732 -0.358,-1.356 -0.524,-1.875l-0.345,-1.076l-25.526,8.174c-0.551,0.175 -1.005,0.43 -1.362,0.764c-0.357,0.333 -0.565,0.829 -0.624,1.489c-0.024,0.396 0.01,0.988 0.102,1.776c0.092,0.788 0.19,1.452 0.296,1.991l-1.789,0.572l-5.81,-18.141l1.79,-0.573c0.187,0.429 0.453,1.032 0.794,1.806c0.34,0.777 0.619,1.29 0.835,1.542c0.434,0.518 0.891,0.81 1.368,0.876c0.475,0.067 0.996,0.01 1.563,-0.171l25.756,-8.247l-0.344,-1.075c-0.166,-0.519 -0.386,-1.129 -0.663,-1.832c-0.275,-0.703 -0.521,-1.288 -0.739,-1.756c-0.405,-0.846 -1.57,-1.536 -3.495,-2.073c-1.925,-0.535 -3.66,-0.817 -5.202,-0.844l-0.573,-1.789l9.312,-2.981l10.097,31.536l-9.311,2.981Zm-238.884,-31.646c-0.414,0.324 -0.76,0.651 -1.026,0.982l-0.01,0.013c-1.914,2.483 -3.978,4.596 -6.08,6.248c-1.48,1.224 -3.102,2.346 -4.765,3.111c1.509,5.566 6.492,11.595 10.54,16.496l0.389,0.47c2.604,3.154 5.498,4.626 8.618,4.385c3.387,-0.265 6.944,-2.749 9.057,-6.326c0.467,-0.79 0.457,-2.065 -0.026,-3.688c-2.188,-7.347 -12.78,-19.045 -16.697,-21.691Zm135.517,-8.71c-4.346,2.817 -7.325,6.952 -8.434,11.74c-1.033,4.461 -0.276,8.908 2.13,12.517c3.888,5.835 13.658,16.667 22.824,15.941c3.976,-0.317 7.426,-2.853 10.287,-7.551c0.3,-0.987 0.606,-1.894 0.906,-2.708c-11.352,-4.658 -19.001,-15.253 -24.189,-23.854c-1.201,-1.99 -2.265,-3.866 -3.206,-5.526l-0.318,-0.559Zm-122.687,2.544l-0.002,0.045c-0.762,15.845 7.875,29.157 13.846,30.059c2.683,0.411 3.894,-2.082 4.449,-4.236c2.928,-11.375 2.191,-28.619 1.876,-35.982c-0.053,-1.242 -0.095,-2.222 -0.108,-2.897c-0.84,0.138 -1.678,0.201 -2.53,0.201c-0.452,-0 -0.909,-0.018 -1.372,-0.052c-0.723,-0.049 -1.427,-0.137 -2.115,-0.244c-0.036,0.406 -0.098,0.801 -0.184,1.185l-0.025,0.107c-1.301,5.502 -7.587,9.02 -13.835,11.814Zm117.457,-47.629c-0.467,1.187 -0.994,2.31 -1.582,3.369c-1.886,3.582 -3.964,5.632 -5.945,7.093c-1.293,1.037 -2.714,1.956 -4.266,2.761c-0.02,0.01 -0.04,0.02 -0.061,0.031c-0.465,0.311 -0.904,0.633 -1.317,0.989c2.806,3.8 3.753,7.245 2.739,10c-0.026,0.069 -0.052,0.138 -0.078,0.207c2.826,3.434 6.676,6.97 9.698,9.747c1.438,1.32 2.679,2.461 3.656,3.438c0.899,0.899 1.893,2.475 3.129,4.61l0.002,-0.002l0.212,0.373c0.336,0.583 0.689,1.205 1.063,1.864l0.074,0.131c5.108,9.001 13.657,24.066 27.838,29.06l0.535,0.189c7.361,2.431 15.504,1.894 24.25,-1.596c-12.002,-29.869 -33.143,-55.116 -59.947,-72.264Zm-168.519,55.739c-0.127,-6.685 -5.584,-12.088 -12.288,-12.131l-0.08,-0c-6.82,-0 -12.369,5.549 -12.369,12.368c-0,6.82 5.549,12.369 12.369,12.369l0.136,-0.001c2.749,-0.031 5.37,-0.993 7.59,-2.785c2.705,-2.187 4.321,-5.285 4.558,-8.733l0.066,-1.087l0.018,-0Zm245.647,9.107l-8.948,-16.323l1.647,-0.904c0.472,0.728 1.099,1.545 1.88,2.451c0.78,0.906 1.331,1.271 1.656,1.093c0.112,-0.061 0.232,-0.141 0.362,-0.24c0.129,-0.098 0.288,-0.262 0.472,-0.491l4.807,-5.962l-5.67,-10.345c-0.708,0.079 -1.528,0.187 -2.459,0.324c-0.931,0.137 -1.758,0.268 -2.478,0.389c-0.934,0.166 -1.592,0.322 -1.97,0.465c-0.379,0.144 -0.639,0.254 -0.78,0.331c-0.45,0.247 -0.647,0.799 -0.589,1.655c0.057,0.856 0.45,2.117 1.18,3.784l-1.646,0.902l-6.737,-12.29l1.648,-0.903c0.281,0.449 0.644,0.933 1.083,1.452c0.44,0.518 0.858,0.888 1.254,1.11c0.655,0.393 1.338,0.655 2.051,0.785c0.714,0.131 1.481,0.145 2.302,0.043c4.852,-0.536 9.713,-1.071 14.582,-1.607c4.869,-0.537 10.241,-1.124 16.115,-1.763l2.315,4.225c-5.273,6.478 -9.452,11.58 -12.538,15.303c-3.085,3.724 -5.622,6.845 -7.61,9.362c-0.323,0.414 -0.58,0.857 -0.769,1.328c-0.192,0.47 -0.299,1.052 -0.323,1.742c-0.009,0.518 0.073,1.068 0.246,1.651c0.173,0.582 0.361,1.093 0.564,1.531l-1.647,0.902Zm-194.031,-40.421c-0.914,0.003 -1.697,0.167 -2.341,0.301c-0.869,0.181 -2.088,0.231 -3.631,0.295c-4.76,0.195 -11.952,0.49 -17.303,4.885c-4.802,3.943 -6.52,11.631 -8.035,18.415c-0.646,2.891 -1.256,5.621 -2.058,7.788c-0.969,2.617 -0.254,5.32 1.699,6.428c2.781,1.577 8.356,0.03 15.657,-9.047c1.844,-2.295 5.993,-4.052 10.796,-6.087c1.01,-0.428 2.038,-0.864 3.061,-1.312c6.768,-2.961 13.355,-6.47 13.617,-12.057l0.008,-0.326c-0.68,-0.773 -1.324,-1.601 -2.001,-2.47c-2.484,-3.192 -5.038,-6.475 -9.469,-6.813Zm67.849,7.851c-0.712,-0.424 -1.515,-0.74 -2.32,-0.74c-0.381,-0 -0.764,0.07 -1.138,0.236c-1.313,0.579 -3.592,2.857 -4.094,11.604c-0.104,1.797 -0.805,4.135 -1.546,6.612c-1.222,4.082 -2.744,9.163 -1.026,11.107c0.858,0.972 2.627,1.241 5.265,0.796c10.538,-1.775 11.108,-6.333 11.66,-10.741c0.104,-0.825 0.202,-1.605 0.362,-2.365c1.116,-5.244 -2.049,-12.163 -5.693,-15.415c-0.492,-0.346 -0.982,-0.711 -1.47,-1.094Zm-36.941,-3.696c0,0 -5.058,4.349 -9.328,5.789l0.565,21.502l33.154,-0.227c0,0 2.635,-8.687 3.051,-11.219c0.58,-3.527 0.711,-7.873 0.711,-7.873c-0,0 -2.58,3.131 -5.817,2.372c-2.633,-0.619 -7.99,-3.463 -12.613,-10.575c0,-0 -5.756,3.46 -9.723,0.231Zm-115.216,3.866c-5.913,7.245 -11.179,15.038 -15.708,23.293l21.609,-0c0.01,-0.581 0.054,-1.154 0.13,-1.716l0.162,-0.95l0.015,-0.07c0.064,-0.305 0.138,-0.606 0.221,-0.903l0.317,-0.995l0.023,-0.062c0.136,-0.374 0.288,-0.741 0.454,-1.1l0.409,-0.816c0.144,-0.266 0.297,-0.527 0.457,-0.784l0.694,-1.009l0.098,-0.129c0.526,-0.686 1.113,-1.323 1.752,-1.904l-10.633,-12.855Zm84.661,-25.33l-52.148,41.154c0.826,1.3 1.449,2.742 1.825,4.278l0.139,0.629l0.167,1.048l0.062,0.623l0.017,0.254c0.013,0.211 0.021,0.423 0.024,0.637l14.146,-0c0.037,-0.115 0.077,-0.229 0.119,-0.343c0.754,-2.038 1.349,-4.702 1.98,-7.523c1.588,-7.107 3.387,-15.164 8.737,-19.555c5.882,-4.832 13.795,-5.157 18.522,-5.35c0.724,-0.03 1.397,-0.058 1.974,-0.098c0.124,-6.183 1.84,-11.316 4.436,-15.754Zm-128.717,3.302c2.205,-0.595 4.495,-0.723 6.866,-0.384c2.373,0.339 4.737,1.257 7.094,2.756c2.101,1.336 3.874,2.96 5.323,4.87c1.449,1.911 2.434,3.965 2.958,6.163c0.535,2.301 0.6,4.644 0.195,7.03c-0.406,2.388 -1.435,4.882 -3.089,7.483c-1.336,2.1 -2.944,3.864 -4.824,5.295c-1.88,1.43 -3.929,2.438 -6.148,3.025c-2.183,0.589 -4.459,0.713 -6.826,0.366c-2.369,-0.345 -4.684,-1.237 -6.946,-2.676c-2.357,-1.499 -4.238,-3.262 -5.642,-5.287c-1.405,-2.025 -2.342,-4.177 -2.815,-6.457c-0.454,-2.248 -0.433,-4.561 0.062,-6.939c0.494,-2.377 1.43,-4.65 2.809,-6.818c1.371,-2.154 3.009,-3.952 4.915,-5.394c1.907,-1.441 3.929,-2.453 6.068,-3.033Zm156.959,-34.377c-18.11,0.69 -35.426,4.536 -51.405,11.001l-32.623,57.325l0.814,0.647l0.769,0.707l0.282,0.287c0.189,0.198 0.373,0.4 0.551,0.608l57.727,-45.557c3.303,-3.864 7.14,-7.199 10.784,-10.366c5.442,-4.73 10.621,-9.231 13.101,-14.652Zm-93.542,36.608c-6.478,5.533 -12.491,11.596 -17.972,18.12l10.862,13.26c2.057,-1.394 4.489,-2.271 7.11,-2.444l0,-28.936Zm38.878,-24.245c-13.358,5.766 -25.74,13.38 -36.823,22.52l0,30.67l1.238,0.147l0.134,0.022c1.183,0.205 2.318,0.554 3.384,1.029l0.31,0.142c0.221,0.105 0.439,0.215 0.653,0.331l31.104,-54.861Zm223.59,54.051l8.456,-10.274l-13.175,1.663l4.719,8.611Zm-308.567,-13.687c-0.846,-1.394 -1.964,-2.724 -3.352,-3.986c-1.389,-1.264 -3.066,-2.522 -5.033,-3.773c-1.669,-1.061 -3.37,-1.976 -5.1,-2.745c-1.731,-0.767 -3.396,-1.261 -4.993,-1.476c-1.605,-0.203 -3.086,-0.061 -4.444,0.426c-1.358,0.488 -2.495,1.449 -3.407,2.885c-1.56,2.452 -1.581,5.055 -0.065,7.807c1.517,2.754 4.399,5.481 8.646,8.183c1.805,1.147 3.595,2.092 5.373,2.832c1.777,0.741 3.453,1.193 5.026,1.357c1.595,0.158 3.026,-0.017 4.292,-0.524c1.266,-0.508 2.335,-1.446 3.205,-2.814c0.853,-1.342 1.247,-2.708 1.18,-4.102c-0.067,-1.393 -0.509,-2.749 -1.328,-4.07Zm153.632,-1.39c2.794,4.439 7.986,9.121 11.676,9.277c1.258,0.061 2.23,-0.448 2.96,-1.533c3.219,-4.777 1.656,-12.725 -1.805,-16.758c-4.755,3.943 -9.155,7.034 -12.831,9.014Zm28.164,4.515c3.346,2.375 6.909,3.857 10.286,3.857c0.085,0 0.167,-0.001 0.251,-0.002c11.35,-0.247 19.647,-2.418 23.255,-12.215c0.739,-2.006 -0.085,-4.777 -2.322,-7.877c-0.877,0.679 -1.855,1.04 -2.918,1.077l-0.185,0.004c-3.577,0 -7.179,-3.624 -10.078,-6.541l-0.569,-0.57c-2.478,-2.477 -8.878,-3.979 -13.552,-5.076c-1.532,-0.359 -2.889,-0.679 -3.944,-0.99c-4.079,4.405 -8.518,8.723 -12.925,12.561c2.322,5.316 6.395,10.723 11.047,14.512c0.377,0.234 0.753,0.504 1.129,0.809c0.176,0.143 0.351,0.293 0.525,0.451Zm-22.001,-55.309c-4.689,-0.434 -9.44,-0.656 -14.242,-0.656c-1.219,0 -2.436,0.015 -3.646,0.043c-2.485,6.248 -8.103,11.13 -14.019,16.273c-9.032,7.85 -18.364,15.961 -18.856,30.159c1.009,-0.099 1.946,-0.079 2.819,0.037c3.539,0.283 7.62,2.486 12.315,9.937c2.93,0.514 5.006,0.502 7.084,-0.024l1.052,-0.266c2.448,-0.856 5.209,-2.593 8.786,-5.773c-0.141,-0.865 -0.218,-1.683 -0.237,-2.458c-0.375,-5.753 3.094,-9.512 7.033,-13.78c3.265,-3.538 7.04,-7.63 9.448,-13.845c1.082,-2.914 1.902,-6.338 2.305,-10.46c0.061,-0.77 0.105,-1.563 0.129,-2.38l0.023,-0.799l0.066,-0.015c0.042,-1.099 0.011,-3.493 -0.06,-5.993Zm126.257,52.739l-12.682,-13.494l1.368,-1.287c0.408,0.365 0.926,0.799 1.552,1.3c0.627,0.503 1.086,0.815 1.377,0.937c0.582,0.268 1.114,0.353 1.593,0.254c0.481,-0.099 0.955,-0.368 1.424,-0.808l18.599,-17.483l-29.931,12.005l-2.078,-2.212c0.287,-0.467 0.808,-1.447 1.564,-2.94c0.757,-1.493 1.359,-2.692 1.807,-3.599l11.188,-22.381l-15.143,14.234c-1.452,1.364 -2.463,2.497 -3.036,3.399c-0.573,0.902 -0.832,1.735 -0.775,2.497c0.028,0.524 0.286,1.267 0.773,2.231c0.487,0.963 0.856,1.613 1.107,1.95l-1.369,1.288l-10.061,-10.705l1.369,-1.287c0.309,0.26 0.836,0.662 1.581,1.208c0.743,0.545 1.466,0.885 2.166,1.021c0.766,0.16 1.616,-0.043 2.549,-0.611c0.932,-0.568 2.117,-1.527 3.556,-2.881l12.336,-11.594c0.749,-0.704 1.282,-1.383 1.605,-2.038c0.32,-0.654 0.451,-1.306 0.392,-1.955c-0.077,-0.809 -0.294,-1.508 -0.65,-2.099c-0.357,-0.59 -0.753,-1.154 -1.191,-1.689l1.369,-1.287l10.784,11.473l-10.637,21.559l18.178,-7.342c0.656,-0.287 1.401,-0.668 2.234,-1.142c0.833,-0.475 1.361,-0.806 1.583,-0.992l10.367,11.03l-1.369,1.286c-0.375,-0.352 -0.79,-0.7 -1.245,-1.043c-0.456,-0.344 -0.917,-0.647 -1.386,-0.911c-0.581,-0.314 -1.104,-0.39 -1.569,-0.229c-0.465,0.162 -0.896,0.43 -1.293,0.804l-17.636,16.576c-0.421,0.396 -0.707,0.801 -0.856,1.218c-0.15,0.415 -0.115,0.95 0.104,1.605c0.115,0.331 0.375,0.808 0.782,1.429c0.407,0.62 0.73,1.093 0.969,1.419l-1.369,1.286Zm-114.764,-51.235c-0.565,0.483 -1.155,0.957 -1.757,1.417c-2.915,2.3 -5.687,3.995 -7.703,4.686c-0.038,0.565 -0.083,1.123 -0.136,1.674c-0.38,4.91 -1.455,8.924 -2.913,12.31c-0.116,0.28 -0.235,0.559 -0.357,0.834c-2.54,5.718 -6.004,9.387 -9.061,12.622c-3.72,3.94 -6.556,6.944 -6.458,12.087c0.045,0.706 0.159,1.447 0.348,2.232c0.287,1.188 0.911,1.782 2.024,1.925c1.392,0.18 3.277,-0.306 5.511,-1.324l-0.011,-0.019l0.96,-0.481c3.903,-1.961 8.797,-5.377 14.151,-9.883l0.709,-0.597l0.021,0.021c0.131,-0.112 0.262,-0.224 0.392,-0.336c0.05,-0.073 0.109,-0.141 0.178,-0.201c6.32,-5.447 12.739,-11.931 18.075,-18.257c0.054,-0.064 0.116,-0.121 0.183,-0.17c3.638,-4.333 6.824,-8.66 9.188,-12.645c-7.539,-2.554 -15.337,-4.535 -23.344,-5.895Zm-156.354,4.367l-1.297,1.357c-1.282,-0.581 -2.869,-0.964 -4.765,-1.146c-1.896,-0.183 -3.26,0.057 -4.097,0.723c-0.378,0.303 -0.862,0.727 -1.451,1.274c-0.588,0.546 -1.116,1.061 -1.58,1.549l-3.673,3.839l9.675,9.256l2.347,-2.454c0.665,-0.696 1.165,-1.374 1.497,-2.035c0.332,-0.66 0.483,-1.381 0.454,-2.164c-0.012,-0.567 -0.228,-1.312 -0.645,-2.235c-0.419,-0.921 -0.844,-1.644 -1.276,-2.169l1.266,-1.322l10.39,9.939l-1.266,1.322c-0.566,-0.453 -1.374,-0.881 -2.421,-1.283c-1.048,-0.403 -1.8,-0.61 -2.255,-0.624c-0.692,-0.017 -1.378,0.148 -2.058,0.498c-0.679,0.35 -1.368,0.89 -2.067,1.621l-2.348,2.454l8.179,7.823c0.418,0.4 0.85,0.663 1.296,0.789c0.445,0.127 0.972,0.059 1.579,-0.205c0.349,-0.155 0.78,-0.414 1.295,-0.778c0.514,-0.364 1.005,-0.743 1.473,-1.139l1.358,1.297l-12.736,13.314l-1.357,-1.299c0.287,-0.37 0.665,-0.863 1.134,-1.482c0.469,-0.617 0.762,-1.08 0.88,-1.39c0.238,-0.573 0.288,-1.08 0.154,-1.519c-0.134,-0.44 -0.428,-0.877 -0.88,-1.309l-17.421,-16.664c-0.393,-0.377 -0.809,-0.635 -1.243,-0.773c-0.435,-0.137 -0.967,-0.075 -1.597,0.188c-0.45,0.193 -0.988,0.5 -1.614,0.922c-0.627,0.424 -1.091,0.757 -1.393,1.002l-1.357,-1.299l21.226,-22.187l6.594,6.309Zm181.731,2.233c-2.199,3.606 -5.387,8.288 -9.725,13.433l-0.511,0.602c-0.432,0.505 -0.874,1.014 -1.328,1.527c-0.556,0.628 -1.05,1.174 -1.462,1.623c0.42,0.109 0.876,0.221 1.36,0.337c0.455,0.109 0.935,0.222 1.435,0.339c5.188,1.218 11.644,2.734 14.535,5.624l0.573,0.575c2.491,2.506 5.899,5.934 8.621,5.934l0.047,0c0.861,-0.013 1.62,-0.383 2.323,-1.132l0.021,-0.023c1.219,-1.293 2.605,-2.14 4.072,-3.035c0.805,-0.492 1.637,-1 2.476,-1.611c2.304,-1.846 4.171,-4.104 5.625,-6.805c0.483,-0.951 0.953,-2.017 1.405,-3.221c-9.22,-5.719 -19.089,-10.488 -29.467,-14.167Zm20.374,4.091l29.199,-55.132c-30.756,-15.876 -65.074,-24.284 -100.685,-24.284c-43.1,0 -84.306,12.316 -119.602,35.284l34.291,52.104c24.602,-15.897 53.898,-25.133 85.311,-25.133c25.72,0 50.02,6.192 71.486,17.161Zm-55.133,-11.984c0.07,1.752 0.08,3.442 0.033,5.074c1.705,-0.815 4.203,-2.347 6.528,-4.138l0.098,-0.079c-2.205,-0.334 -4.425,-0.62 -6.659,-0.857Zm-62.225,-11.151c-2.01,0.562 -3.955,0.834 -5.835,0.819c-1.879,-0.016 -3.518,-0.196 -4.915,-0.539l-1.145,2.071l-1.972,0.551l-3.628,-11.812l1.993,-0.558c0.766,1.006 1.671,2.039 2.718,3.099c1.047,1.06 2.165,1.959 3.355,2.696c1.233,0.775 2.524,1.324 3.875,1.647c1.349,0.325 2.804,0.269 4.365,-0.168c2.104,-0.588 3.571,-1.553 4.404,-2.896c0.834,-1.343 1.032,-2.795 0.594,-4.358c-0.359,-1.285 -1.136,-2.231 -2.332,-2.84c-1.195,-0.608 -2.879,-0.951 -5.051,-1.03c-1.416,-0.056 -2.719,-0.11 -3.909,-0.162c-1.19,-0.053 -2.317,-0.131 -3.38,-0.236c-2.458,-0.264 -4.453,-1.066 -5.987,-2.407c-1.534,-1.34 -2.584,-3.024 -3.151,-5.053c-0.36,-1.284 -0.427,-2.597 -0.201,-3.937c0.225,-1.34 0.739,-2.632 1.541,-3.874c0.775,-1.167 1.88,-2.252 3.316,-3.256c1.437,-1.003 3.091,-1.765 4.961,-2.289c1.825,-0.51 3.605,-0.733 5.34,-0.667c1.736,0.064 3.131,0.224 4.185,0.479l1.027,-1.787l2.017,-0.564l3.325,11.173l-1.995,0.558c-0.801,-1.08 -1.692,-2.163 -2.671,-3.251c-0.98,-1.088 -1.935,-1.954 -2.865,-2.596c-1.009,-0.686 -2.083,-1.159 -3.222,-1.418c-1.14,-0.257 -2.374,-0.2 -3.703,0.172c-1.67,0.467 -2.902,1.321 -3.697,2.563c-0.795,1.241 -0.997,2.557 -0.608,3.951c0.368,1.317 1.13,2.264 2.284,2.844c1.153,0.578 2.793,0.913 4.919,1.002c1.252,0.068 2.528,0.128 3.827,0.182c1.299,0.055 2.462,0.13 3.489,0.226c2.484,0.241 4.523,0.96 6.117,2.158c1.594,1.199 2.708,2.929 3.34,5.188c0.398,1.425 0.451,2.896 0.159,4.413c-0.293,1.518 -0.88,2.876 -1.762,4.073c-0.964,1.322 -2.184,2.473 -3.66,3.453c-1.477,0.981 -3.298,1.774 -5.462,2.38Zm51.818,-10.118c0.44,0.001 0.919,-0.02 1.439,-0.062c0.828,-0.067 1.541,-0.252 2.136,-0.556c0.686,-0.371 1.21,-1.005 1.575,-1.901c0.364,-0.897 0.705,-2.441 1.022,-4.635l2.308,-16.018c0.114,-0.793 0.1,-1.563 -0.045,-2.305c-0.145,-0.743 -0.442,-1.405 -0.893,-1.99c-0.479,-0.621 -1.056,-1.139 -1.735,-1.552c-0.678,-0.414 -1.465,-0.774 -2.361,-1.083l0.274,-1.907l12.733,1.835l15.195,25.539l1.843,-12.793c0.294,-2.034 0.376,-3.566 0.251,-4.597c-0.127,-1.032 -0.451,-1.828 -0.97,-2.39c-0.409,-0.431 -1.046,-0.844 -1.914,-1.236c-0.867,-0.393 -1.573,-0.678 -2.116,-0.852l0.268,-1.86l14.516,2.093l-0.267,1.859c-0.453,-0.017 -1.102,-0.021 -1.945,-0.013c-0.845,0.009 -1.637,0.21 -2.375,0.607c-0.649,0.344 -1.174,1.019 -1.57,2.024c-0.396,1.006 -0.739,2.517 -1.03,4.535l-3.484,24.17l-4.242,-0.612l-17.303,-29.185l-2.289,15.875c-0.284,1.971 -0.368,3.487 -0.254,4.55c0.115,1.062 0.432,1.874 0.951,2.436c0.379,0.412 1.017,0.82 1.916,1.225c0.898,0.406 1.619,0.695 2.162,0.871l-0.268,1.859l-14.014,-2.019l-17.92,1.441l-0.15,-1.872c0.857,-0.133 1.859,-0.371 3.005,-0.713c1.146,-0.341 1.704,-0.696 1.675,-1.064c-0.011,-0.129 -0.034,-0.272 -0.071,-0.43c-0.037,-0.158 -0.123,-0.368 -0.256,-0.632l-3.475,-6.824l-11.759,0.947c-0.218,0.678 -0.454,1.47 -0.71,2.376c-0.255,0.908 -0.475,1.714 -0.658,2.421c-0.23,0.921 -0.357,1.584 -0.38,1.988c-0.025,0.404 -0.03,0.687 -0.018,0.846c0.042,0.513 0.465,0.918 1.269,1.216c0.805,0.298 2.117,0.453 3.936,0.468l0.151,1.872l-13.97,1.125l-0.151,-1.873c0.525,-0.075 1.115,-0.206 1.767,-0.396c0.654,-0.189 1.163,-0.419 1.528,-0.691c0.625,-0.436 1.143,-0.952 1.554,-1.55c0.411,-0.597 0.737,-1.292 0.98,-2.084c1.495,-4.646 2.992,-9.301 4.494,-13.964c1.5,-4.663 3.161,-9.806 4.98,-15.428l4.801,-0.387c3.757,7.461 6.704,13.361 8.841,17.699c2.137,4.338 3.948,7.93 5.434,10.773c0.246,0.463 0.545,0.878 0.897,1.245c0.351,0.367 0.837,0.702 1.458,1.006c0.468,0.22 1.004,0.37 1.606,0.45c0.603,0.081 1.144,0.117 1.627,0.111l0.001,0.012Zm-18.857,-10.478l-5.921,-11.916l-3.867,12.704l9.788,-0.788Z" style="fill:#036db7;fill-rule:nonzero;"/></g></svg>